<svg width="80" height="37" viewBox="0 0 80 37" fill="none" xmlns="http://www.w3.org/2000/svg">
<g clip-path="url(#clip0_42_71)">
<path d="M63.5315 5.69495V7.92935C62.3018 7.92935 61.3044 8.93012 61.3044 10.1641V17.0856H59.0766V10.1641C59.0766 7.69577 61.0709 5.69495 63.5315 5.69495Z" fill="white"/>
<path d="M11.1375 5.69495C9.80653 5.69495 8.61271 6.28132 7.79639 7.20955C6.98006 6.28132 5.78627 5.69495 4.45488 5.69495C1.99461 5.69495 0 7.69577 0 10.1641V17.0856H2.22744V10.1641C2.22744 8.93012 3.2251 7.92935 4.45488 7.92935C5.68501 7.92935 6.68267 8.93012 6.68267 10.1641V17.0856H8.91011V10.1641C8.91011 8.93012 9.90776 7.92935 11.1375 7.92935C12.3677 7.92935 13.365 8.93012 13.365 10.1641V17.0856H15.5928V10.1641C15.5928 7.69577 13.5982 5.69495 11.1375 5.69495Z" fill="white"/>
<path d="M34.3183 17.0857V14.8513C33.0886 14.8513 32.091 13.8505 32.091 12.6166V0H29.8634V12.6166C29.8634 15.0849 31.8577 17.0857 34.3183 17.0857Z" fill="white"/>
<path d="M40.2589 5.69498C39.4472 5.69498 38.6866 5.91403 38.0314 6.29445V0.0272217H35.8036V10.1641V17.0857H38.0314V10.1641C38.0314 8.93015 39.0288 7.92938 40.2589 7.92938C41.4886 7.92938 42.4862 8.93015 42.4862 10.1641V17.0857H44.714V10.1641C44.714 7.6958 42.7195 5.69498 40.2589 5.69498Z" fill="white"/>
<path d="M28.2676 10.2954C27.748 7.70248 25.4654 5.74976 22.7283 5.74976C19.9911 5.74976 17.7083 7.70248 17.189 10.2954C17.1167 10.6584 17.0782 11.0336 17.0782 11.4179C17.0782 11.8025 17.1167 12.178 17.189 12.5407C17.709 15.1333 19.9911 17.0856 22.7283 17.0856C24.5917 17.0856 26.2437 16.1807 27.2727 14.7861L25.4831 13.4598C24.8598 14.3052 23.8579 14.8533 22.7283 14.8533C21.2286 14.8533 19.9537 13.8869 19.4901 12.5407H28.2676C28.3399 12.178 28.3783 11.8025 28.3783 11.4179C28.3783 11.0336 28.3399 10.6584 28.2676 10.2954ZM22.7283 7.98203C24.2279 7.98203 25.5028 8.94921 25.9663 10.2954H19.4901C19.9537 8.94921 21.2286 7.98203 22.7283 7.98203Z" fill="white"/>
<path d="M51.9135 5.69495C48.7776 5.69495 46.2357 8.245 46.2357 11.3903C46.2357 14.5359 48.7776 17.0856 51.9135 17.0856C55.0492 17.0856 57.591 14.5359 57.591 11.3903C57.591 8.245 55.0492 5.69495 51.9135 5.69495ZM51.9135 14.8534C50.007 14.8534 48.4613 13.303 48.4613 11.3903C48.4613 9.47792 50.007 7.92722 51.9135 7.92722C53.8203 7.92722 55.3657 9.47792 55.3657 11.3903C55.3657 13.303 53.8203 14.8534 51.9135 14.8534Z" fill="white"/>
<path d="M61.2137 19.4203H58.9864V30.7557H61.2137V19.4203Z" fill="white"/>
<path d="M34.228 23.9985C33.7117 21.4184 31.44 19.4749 28.716 19.4749C25.9918 19.4749 23.7203 21.4184 23.2038 23.9985C23.1311 24.3595 23.0934 24.7328 23.0934 25.1153C23.0934 25.4983 23.1311 25.872 23.2038 26.2325C23.7206 28.8128 25.9918 30.7558 28.716 30.7558C30.5702 30.7558 32.2143 29.8555 33.2381 28.4673L31.4575 27.1473C30.8371 27.9888 29.8403 28.5343 28.716 28.5343C27.2237 28.5343 25.9547 27.5723 25.4936 26.2325H34.228C34.3008 25.872 34.3385 25.4983 34.3385 25.1153C34.3385 24.7328 34.3008 24.3595 34.228 23.9985ZM28.716 21.6962C30.2081 21.6962 31.4771 22.6587 31.9382 23.9985H25.4936C25.9547 22.6587 27.2237 21.6962 28.716 21.6962Z" fill="white"/>
<path d="M40.2589 19.3652C37.7981 19.3652 35.8036 21.3657 35.8036 23.8343V30.7558H38.0314V23.8343C38.0314 22.6003 39.0288 21.5996 40.2589 21.5996C41.4886 21.5996 42.4862 22.6003 42.4862 23.8343V30.7558H44.714V23.8343C44.714 21.3657 42.7195 19.3652 40.2589 19.3652Z" fill="white"/>
<path d="M68.3801 19.3652C65.2446 19.3652 62.7025 21.9152 62.7025 25.0606C62.7025 28.2061 65.2446 30.7558 68.3801 30.7558C71.516 30.7558 74.0578 28.2061 74.0578 25.0606C74.0578 21.9152 71.516 19.3652 68.3801 19.3652ZM68.3801 28.5236C66.4738 28.5236 64.9278 26.9733 64.9278 25.0606C64.9278 23.1482 66.4738 21.5975 68.3801 21.5975C70.2868 21.5975 71.8323 23.1482 71.8323 25.0606C71.8323 26.9733 70.2868 28.5236 68.3801 28.5236Z" fill="white"/>
<path d="M55.1332 19.5061L51.9143 27.6185L48.6943 19.5057L46.2357 19.5061L50.9149 30.7555H52.9139L57.591 19.5061H55.1332Z" fill="white"/>
<path d="M63.5315 5.69495V7.92935C62.3018 7.92935 61.3044 8.93012 61.3044 10.1641V17.0856H59.0766V10.1641C59.0766 7.69577 61.0709 5.69495 63.5315 5.69495Z" fill="white"/>
<path d="M79.9883 19.1951L79.9875 19.1848C79.9367 18.5269 79.6965 17.897 79.2728 17.3124L79.2581 17.2926C78.0708 15.7355 76.1229 15.5958 74.3317 15.5522C75.189 14.2921 76.3113 12.4841 76.3499 10.1577C76.3905 8.51284 75.8871 7.08034 74.9336 6.12344C74.5917 5.78089 74.1515 5.47974 73.6932 5.27554C73.2294 5.06851 72.7601 4.96624 72.2599 4.96271C71.281 4.91884 70.3028 5.31411 69.5704 6.04876C68.815 6.80644 68.5802 7.70246 68.3726 8.49339L68.3654 8.52381C68.3641 8.52841 68.3631 8.53266 68.3624 8.53691C68.2253 9.12859 67.9634 9.68349 67.6005 10.1694L67.0759 10.8704L66.9072 11.0735L66.8745 11.1153C66.8391 11.1627 66.7973 11.2112 66.7494 11.2674C66.6938 11.3322 66.632 11.4048 66.5657 11.4907C66.1473 11.9703 65.6414 12.5262 65.0522 13.0436L65.0343 13.0595C64.4646 13.5836 63.8385 14.118 63.2905 14.5681V16.0972V17.0856C63.2905 17.0856 65.5053 15.4415 66.4239 14.5975C67.111 13.993 67.6803 13.3656 68.1465 12.8312L68.1951 12.7707C68.2308 12.723 68.2724 12.6745 68.3205 12.6186C68.3778 12.551 68.4429 12.4749 68.5124 12.3836L68.6824 12.1787L69.3974 11.2062C69.8014 10.6574 70.1034 10.0395 70.2834 9.38161C70.3165 9.26059 70.3479 9.13566 70.3778 9.00651C70.5373 8.39889 70.6766 7.87409 71.0333 7.51666C71.1138 7.43599 71.2252 7.36591 71.3475 7.30611C71.5878 7.18826 72.158 7.05344 72.647 7.15359C73.0702 7.24029 73.4328 7.55381 73.4699 7.59099C74.0125 8.13489 74.3078 9.05286 74.2816 10.1099L74.2814 10.1195C74.251 12.0159 73.1915 13.5556 72.4179 14.6803L72.3262 14.8137C71.9866 15.2543 71.7473 15.6453 71.5514 16.0777L70.9398 17.4278L72.4137 17.5417C72.6751 17.5619 72.9306 17.5718 73.1778 17.5814C73.4161 17.5906 73.6406 17.5991 73.8627 17.6164L73.9205 17.6192C75.5404 17.6529 76.9398 17.6822 77.6065 18.5436C77.7986 18.8115 77.9026 19.0716 77.9237 19.3387C77.9512 19.7585 77.8963 20.1651 77.7613 20.548C77.4854 21.2904 77.4171 22.1277 77.5631 22.9713C77.6192 23.3422 77.6192 23.7145 77.5639 24.0489L77.5611 24.0655C77.4854 24.5733 77.2511 25.0924 76.8651 25.6087C76.7404 25.7754 76.5647 26.0422 76.4354 26.3674L76.4142 26.4249C76.308 26.7439 76.2497 27.1122 76.2497 27.4607C76.2497 27.7912 76.0905 28.2752 75.9479 28.6427C75.8128 28.9909 75.6287 29.3174 75.4004 29.6122C75.2127 29.8554 74.9775 30.1324 74.789 30.2677L74.7439 30.3017C74.5543 30.4537 74.2993 30.6877 74.1004 30.9754L74.0626 31.0132L74.004 31.1032C73.2561 32.2522 72.796 32.9589 72.0987 33.5392C71.5203 34.0209 70.8339 34.3532 70.1042 34.5347C69.8826 34.5899 69.6661 34.6362 69.4547 34.6667C68.9184 34.7384 68.4117 34.8057 67.925 34.8057C66.1361 34.8057 64.3711 34.5907 62.6789 34.1664L62.6629 34.1624C61.7211 33.9419 60.47 33.6724 59.1479 33.5439L58.2607 33.5389L23.2587 33.5407C23.0442 33.5407 23.035 33.8599 23.2492 33.8727L58.9971 35.6147C60.1777 35.7329 61.3181 35.9792 62.1849 36.1819C64.0391 36.6459 65.9704 36.8817 67.925 36.8817C68.5505 36.8817 69.1517 36.8014 69.7328 36.7234L69.7426 36.7219C70.0337 36.6802 70.5652 36.5477 70.9931 36.4339C71.5075 36.2974 72.0005 36.0904 72.4563 35.8157C73.9913 34.8912 74.6751 33.8679 75.6775 32.3287L75.7947 32.1672C75.8173 32.1302 75.8946 32.0392 76.0184 31.9372C76.6308 31.4924 77.1305 30.9182 77.5051 30.2292C78.0376 29.4092 78.3193 28.4532 78.3193 27.4607C78.3193 27.3477 78.338 27.2137 78.3684 27.1104C78.4042 27.0292 78.4601 26.9354 78.5206 26.8542C79.113 26.0622 79.4781 25.2304 79.6065 24.3815C79.6982 23.8242 79.6982 23.2406 79.607 22.6458L79.6032 22.6235C79.519 22.1443 79.5544 21.663 79.7017 21.2678L79.7074 21.2525C79.9409 20.5968 80.0354 19.9046 79.9883 19.1951Z" fill="#F3B331"/>
</g>
<defs>
<clipPath id="clip0_42_71">
<rect width="80" height="37" fill="white"/>
</clipPath>
</defs>
</svg>
